<?xml version="1.0" encoding="UTF-8"?>
<svg width="700pt" height="700pt" version="1.1" viewBox="0 0 700 700" xmlns="http://www.w3.org/2000/svg">
 <g>
  <path fill="#d80909" d="m577.5 105h-105v-17.5c-0.015625-13.918-5.5508-27.266-15.395-37.105-9.8398-9.8438-23.188-15.379-37.105-15.395h-140c-13.918 0.015625-27.266 5.5508-37.105 15.395-9.8438 9.8398-15.379 23.188-15.395 37.105v17.5h-105c-6.2539 0-12.031 3.3359-15.156 8.75s-3.125 12.086 0 17.5 8.9023 8.75 15.156 8.75h36.516l30.656 337.25c1.1328 13.07 7.1367 25.238 16.828 34.086 9.6875 8.8438 22.348 13.723 35.469 13.664h216.06c13.121 0.058594 25.781-4.8203 35.469-13.664 9.6914-8.8477 15.695-21.016 16.828-34.086l30.656-337.25h36.516c6.2539 0 12.031-3.3359 15.156-8.75s3.125-12.086 0-17.5-8.9023-8.75-15.156-8.75zm-315-17.5c0.003906-4.6406 1.8477-9.0898 5.1289-12.371s7.7305-5.125 12.371-5.1289h140c4.6406 0.003906 9.0898 1.8477 12.371 5.1289s5.125 7.7305 5.1289 12.371v17.5h-175zm212.96 386.57c-0.375 4.3594-2.375 8.418-5.6055 11.367-3.2305 2.9492-7.4531 4.5781-11.828 4.5586h-216.06c-4.375 0.019531-8.5977-1.6094-11.828-4.5586-3.2305-2.9492-5.2305-7.0078-5.6055-11.367l-30.371-334.07h311.68z"/>
  <path fill="#d80909" d="m297.5 210c-4.6406 0-9.0938 1.8438-12.375 5.125s-5.125 7.7344-5.125 12.375v175c0 6.2539 3.3359 12.031 8.75 15.156s12.086 3.125 17.5 0 8.75-8.9023 8.75-15.156v-175c0-4.6406-1.8438-9.0938-5.125-12.375s-7.7344-5.125-12.375-5.125z"/>
  <path fill="#d80909" d="m402.5 210c-4.6406 0-9.0938 1.8438-12.375 5.125s-5.125 7.7344-5.125 12.375v175c0 6.2539 3.3359 12.031 8.75 15.156s12.086 3.125 17.5 0 8.75-8.9023 8.75-15.156v-175c0-4.6406-1.8438-9.0938-5.125-12.375s-7.7344-5.125-12.375-5.125z"/>
 </g>
</svg>
